PathFileType	4	(X/Y/Z)	c:/Users/goper/Files/vsCode/490R/osim_files/A06/A06_Slow_03.trc
DataRate	CameraRate	NumFrames	NumMarkers	Units                	OrigDataRate	OrigDataStartFrame	OrigNumFrames
120.00	120.00	4	36	mm	120.0	913	1216
                Frame#	Time	LPSIS			LASIS			LTH1			LTH2			LTH3			LTH4			LLFE			LMFE			LSH1			LSH2			LSH3			LSH4			LLMAL			LMMAL			LCAL			LMTP5			LTOE			LMTP1			RPSIS			RASIS			RTH1			RTH2			RTH3			RTH4			RLFE			RMFE			RSH1			RSH2			RSH3			RSH4			RLMAL			RMMAL			RCAL			RMTP1			RTOE			RMTP5		
		X1	Y1	Z1	X2	Y2	Z2	X3	Y3	Z3	X4	Y4	Z4	X5	Y5	Z5	X6	Y6	Z6	X7	Y7	Z7	X8	Y8	Z8	X9	Y9	Z9	X10	Y10	Z10	X11	Y11	Z11	X12	Y12	Z12	X13	Y13	Z13	X14	Y14	Z14	X15	Y15	Z15	X16	Y16	Z16	X17	Y17	Z17	X18	Y18	Z18	X19	Y19	Z19	X20	Y20	Z20	X21	Y21	Z21	X22	Y22	Z22	X23	Y23	Z23	X24	Y24	Z24	X25	Y25	Z25	X26	Y26	Z26	X27	Y27	Z27	X28	Y28	Z28	X29	Y29	Z29	X30	Y30	Z30	X31	Y31	Z31	X32	Y32	Z32	X33	Y33	Z33	X34	Y34	Z34	X35	Y35	Z35	X36	Y36	Z36

913	7.60000	-2508.15723	1007.11804	357.96481	-2701.60254	949.06110	413.92075	-2624.31860	587.45654	442.86154	-2632.45557	545.94537	436.44406	-2687.30786	590.62805	429.14056	-2683.93506	548.08844	424.45898	-2659.62256	474.59781	415.37378	-2654.27173	470.75958	308.73480	-2597.87769	382.13620	433.95267	-2602.56396	336.11227	436.86542	-2658.11792	380.70511	421.59827	-2654.40405	338.62167	423.66290	-2583.65234	89.79246	387.07452	-2599.22974	102.06969	301.53528	-2517.52881	81.32107	337.09811	-2699.02588	43.87321	405.45673	-2737.99023	62.87508	349.53262	-2713.29639	54.60429	310.96954	-2499.53760	1025.75720	228.31030	-2672.63525	999.31104	162.36368	-2712.53467	625.27979	135.35269	-2722.08813	582.85577	132.36270	-2653.29980	605.20782	125.37167	-2671.33228	567.13104	124.85229	-2725.78809	465.96701	154.34770	-2721.95361	466.26355	243.28424	-2628.05688	341.43924	162.91872	-2605.28516	299.97815	163.26874	-2677.95264	309.98856	175.37029	-2648.79419	271.07193	171.64772	-2534.20801	181.25604	150.09680	-2543.07202	178.03606	235.52757	-2472.21729	190.05481	196.11348	-2636.87842	74.03599	233.45654	-2657.67505	76.89311	194.93765	-2630.16528	76.71680	144.66835
914	7.60833	-2514.45996	1007.47375	358.23401	-2707.46411	948.79474	413.98257	-2627.36475	587.88965	442.98355	-2635.13110	546.22308	436.69623	-2690.06226	590.24109	429.04535	-2686.63013	547.71710	424.87375	-2661.28076	474.44418	415.74045	-2656.40332	470.40918	308.86456	-2599.18018	381.90701	434.35904	-2603.48828	336.27109	436.99033	-2659.61523	380.54910	422.25162	-2656.06567	338.42468	424.54630	-2583.71582	89.82130	387.08130	-2599.33252	102.16318	301.61029	-2517.57642	81.37731	337.13358	-2699.06152	43.81712	405.48572	-2738.05054	62.74517	349.56671	-2713.45898	54.80722	311.15823	-2506.86523	1025.74011	229.05994	-2679.40723	999.49121	162.38788	-2721.75830	626.73529	135.38765	-2731.36499	584.06506	132.12187	-2663.49365	606.67682	124.84455	-2681.11987	568.10028	124.78436	-2736.31152	467.43823	154.05077	-2732.84619	467.56430	242.93040	-2644.60327	338.54385	162.80957	-2624.07544	295.98544	163.17787	-2695.96411	309.32739	175.24181	-2668.66333	269.17114	171.53859	-2558.80591	174.16927	150.00847	-2567.54785	171.43881	235.60510	-2496.51050	179.92227	196.28192	-2666.58740	72.60203	233.75868	-2687.24072	76.22337	195.09875	-2659.01562	74.14153	144.57408
915	7.61667	-2522.44897	1007.05804	359.08707	-2714.70605	948.92639	413.91650	-2630.66821	588.20496	443.10629	-2637.93896	546.39020	436.90015	-2693.68335	589.74646	429.62311	-2689.32471	547.22101	425.24280	-2663.05518	474.27414	416.03958	-2658.95117	470.23550	309.21207	-2600.29736	382.11746	434.42285	-2604.46460	336.40793	437.13000	-2660.60815	380.40637	422.23416	-2656.47144	338.26727	424.41891	-2583.53125	89.90878	387.39200	-2599.03052	102.18506	301.74329	-2517.69873	81.48291	337.19223	-2699.10840	43.71765	405.57623	-2738.18018	62.62343	349.61942	-2713.56079	54.78250	311.16644	-2513.78174	1025.73669	229.59308	-2686.10400	999.47046	162.42641	-2730.70630	627.79895	135.35909	-2740.65088	585.16174	131.97728	-2672.50195	607.32867	124.76993	-2690.47681	568.88306	124.67812	-2746.48315	468.52197	153.67232	-2743.17188	468.53427	242.55122	-2661.54785	335.36493	162.56293	-2642.65015	291.78571	163.07353	-2713.44678	308.37164	175.06128	-2687.91577	267.13858	171.09723	-2582.80444	166.99036	150.17448	-2592.19800	164.75865	235.63724	-2520.56909	169.83437	196.60948	-2695.82031	70.55240	233.81441	-2716.32642	75.42039	194.92842	-2688.95654	72.34531	144.70586
916	7.62500	-2529.42847	1006.96338	359.54810	-2721.86914	948.91589	413.86221	-2633.98804	588.48883	443.14951	-2640.81519	546.61438	437.13794	-2697.07764	589.23755	429.83551	-2692.73999	546.82739	425.96545	-2664.85938	474.05331	416.39764	-2662.11987	469.90921	309.86703	-2601.45752	382.72867	434.26907	-2605.39160	336.54114	437.31705	-2661.76758	380.02954	422.60428	-2657.40625	337.99390	424.82932	-2583.58887	89.84920	387.47867	-2599.20117	102.31194	301.86429	-2517.49487	81.82124	337.14374	-2699.05420	43.54022	405.64667	-2738.25220	62.45732	349.65689	-2714.62231	55.29628	310.42746	-2520.61206	1025.62610	230.09808	-2692.94824	999.38531	162.52170	-2739.18335	628.44434	135.26048	-2749.91284	586.12750	131.93770	-2681.14624	607.65259	124.73178	-2699.45361	569.38177	124.51089	-2756.11865	469.15933	153.23511	-2752.95581	469.10623	242.17978	-2677.53662	332.00110	162.32233	-2661.09985	287.44672	162.95287	-2731.09619	307.65491	174.69356	-2707.88574	265.39975	170.90642	-2607.48608	160.01141	150.27124	-2617.19800	158.15898	235.65306	-2545.24829	159.84642	196.66559	-2726.02075	69.42344	233.63190	-2745.19775	74.66051	194.47659	-2717.77710	70.34158	144.44104
